# xmcd
#
# Track frame offsets: 
#        150
#        24559
#        40968
#        62473
#        80366
#        102205
#        112358
#        149815
#        162190
#        191545
#        224902
#        249502
#        274402
#        291816
#        317381
#
# Disc length: 4605 seconds
#
# Revision: 1
# Processed by: cddbd v1.5.2PL0 Copyright (c) Steve Scherf et al.
# Submitted via: ExactAudioCopy v0.99pb3
#
DISCID=e711fb0f
DTITLE=Jerry "Boogie" McCain - Better Late Than Never [CD1]
DYEAR=2008
DGENRE=Blues
TTITLE0=Ain't No Use For Drug Abuse
TTITLE1=Look At Me
TTITLE2=Blues Tribute
TTITLE3=They Call Me Boogie
TTITLE4=Burn The Crackhouse Down
TTITLE5=Courtin In A Cadillac
TTITLE6=The Cost Of Livin Is Too High
TTITLE7=East Of The Sun
TTITLE8=I Ain't Henpecked
TTITLE9=House Party Boogie
TTITLE10=If I'm Your Fool
TTITLE11=Keep Your Business To Yourself
TTITLE12=A Little Bit Of Something
TTITLE13=Long Arm Of The Law
TTITLE14=Moma's Gone
EXTD=
EXTT0=
EXTT1=
EXTT2=
EXTT3=
EXTT4=
EXTT5=
EXTT6=
EXTT7=
EXTT8=
EXTT9=
EXTT10=
EXTT11=
EXTT12=
EXTT13=
EXTT14=
PLAYORDER=
